<svg preserveAspectRatio="none" width="100%" height="100%" overflow="visible" style="display: block;" viewBox="0 0 124 36" fill="none" xmlns="http://www.w3.org/2000/svg">
<g id="1mg_logo_header 1">
<path id="Vector" d="M83.1545 10.2225V11.538C83.1905 11.538 83.2265 11.538 83.2265 11.502C83.828 10.6845 84.644 10.2225 85.601 9.975C86.63 9.69 87.6215 9.762 88.616 10.116C89.3585 10.365 89.927 10.863 90.3515 11.502C90.3875 11.5725 90.458 11.6445 90.5285 11.787C90.5558 11.723 90.5917 11.663 90.635 11.6085C91.3445 10.6845 92.2655 10.0815 93.401 9.903C94.535 9.69 95.669 9.798 96.698 10.329C98.009 10.9695 98.753 12.0345 98.966 13.491C99.038 13.8465 99.038 14.2365 99.038 14.592V22.833H95.315V15.66C95.315 15.375 95.279 15.126 95.2445 14.8425C95.0675 14.061 94.5695 13.5285 93.755 13.386C93.011 13.2795 92.3015 13.386 91.7705 14.025C91.419 14.4421 91.2299 14.9721 91.238 15.5175V22.8H87.4445V15.624C87.4445 15.2685 87.41 14.913 87.3035 14.5935C86.984 13.7775 86.417 13.422 85.6715 13.35C85.388 13.3155 85.07 13.35 84.7865 13.422C84.0065 13.671 83.5805 14.238 83.4035 15.0195C83.3675 15.198 83.3675 15.4095 83.3675 15.624V22.8H79.5395V10.2225H83.1545ZM109.637 11.394V10.2225H113.324V21.7305C113.324 23.1525 112.97 24.4665 112.261 25.71C111.517 26.988 110.453 27.8055 109.07 28.1955C107.459 28.6636 105.747 28.6516 104.143 28.161C102.866 27.771 101.837 26.988 101.059 25.887C100.734 25.4283 100.504 24.909 100.383 24.36C100.383 24.288 100.349 24.2535 100.349 24.1815C100.349 24.147 100.349 24.0765 100.313 24.0045C101.449 23.685 102.548 23.3655 103.681 23.0445C103.721 23.1219 103.745 23.2066 103.753 23.2935C103.917 23.8344 104.25 24.3087 104.703 24.6475C105.155 24.9864 105.704 25.172 106.27 25.1775C106.73 25.1775 107.191 25.1415 107.617 24.999C108.574 24.6435 109.141 23.898 109.39 22.9395C109.531 22.335 109.566 21.6945 109.53 21.0555L109.496 21.021H109.46C108.928 21.696 108.22 22.0515 107.369 22.1925C106.27 22.371 105.17 22.371 104.143 21.945C102.298 21.234 101.093 19.92 100.562 18.072C100.066 16.368 100.172 14.697 101.023 13.1355C101.732 11.7855 102.796 10.755 104.284 10.257C105.386 9.90297 106.566 9.86658 107.689 10.152C108.469 10.329 109.105 10.755 109.637 11.394ZM104.177 16.119V16.509C104.283 17.5395 104.816 18.321 105.773 18.7125C106.163 18.8895 106.623 18.9255 107.048 18.8895C108.254 18.819 109.106 18.108 109.388 17.1135C109.531 16.6875 109.566 16.2255 109.53 15.7635C109.389 14.058 107.793 12.8865 105.986 13.4535C104.85 13.845 104.177 14.8395 104.177 16.119ZM79.4675 8.481V4.5375H113.288C113.36 4.716 113.36 7.9485 113.324 8.445C113.111 8.517 80.069 8.5515 79.4675 8.481ZM73.8665 28.4445V24.501H99.038V28.4445H73.8665ZM77.801 22.797H73.8305V10.3275H69.9305V7.6275H70.25C71.3855 7.557 72.377 7.2375 73.265 6.492C73.8305 6.03 74.186 5.427 74.363 4.716C74.363 4.68 74.399 4.6095 74.399 4.5735H77.801V22.797ZM35.4365 24.0405H29.906C29.6585 24.0405 29.552 23.9685 29.48 23.7555C28.523 20.985 27.566 18.2505 26.645 15.48C26.6018 15.3485 26.5543 15.2184 26.5025 15.09C26.3975 15.408 26.2895 15.621 26.219 15.87C25.334 18.4635 24.446 21.0915 23.5595 23.685C23.489 23.934 23.3825 24.0045 23.135 24.0045H17.639C17.8175 23.5785 17.9585 23.1525 18.101 22.7265C19.802 18.2505 21.5045 13.7745 23.171 9.3345C23.276 9.0855 23.3825 8.979 23.666 8.979H29.2685C29.516 8.979 29.6225 9.0495 29.729 9.2985C31.5806 14.112 33.4476 18.9195 35.33 23.721C35.4005 23.826 35.4005 23.934 35.4365 24.0405ZM64.9325 24.0405H59.366C59.1185 24.0405 59.012 23.9685 58.9415 23.7555C57.983 20.985 57.026 18.2505 56.105 15.48C56.069 15.3735 56.0345 15.267 55.9625 15.09C55.892 15.267 55.8575 15.408 55.8215 15.5145C54.899 18.2505 53.942 20.9505 53.021 23.685C52.949 23.934 52.8425 24.0405 52.559 24.0405H47.135C47.171 23.898 47.2055 23.7915 47.2415 23.685C49.049 18.8895 50.8925 14.094 52.7015 9.3C52.8065 9.0495 52.9145 8.979 53.1965 8.979H58.835C59.048 8.979 59.153 9.0495 59.2595 9.264C61.139 14.094 63.017 18.96 64.8965 23.7915C64.8965 23.862 64.8965 23.934 64.9325 24.0405ZM48.6245 9.0495V13.455H44.477V24.075H38.45V13.4895H34.16V9.0855C38.9465 9.0495 43.7675 9.0495 48.6245 9.0495ZM4.628 9.0495H19.1285V13.455H14.981V24.075H8.918V13.4895H4.628V9.0495Z" fill="var(--fill-0, black)"/>
</g>
</svg>
